<svg xmlns="http://www.w3.org/2000/svg" version="1.1" xmlns:xlink="http://www.w3.org/1999/xlink" xmlns:svgjs="http://svgjs.dev/svgjs" width="128" height="128" viewBox="0 0 128 128"><g transform="matrix(0.8046875,0,0,0.8046875,12.333870967741937,12.333870967741937)"><svg viewBox="0 0 155 155" data-background-color="#ffffff" preserveAspectRatio="xMidYMid meet" height="128" width="128" xmlns="http://www.w3.org/2000/svg" xmlns:xlink="http://www.w3.org/1999/xlink"><g id="tight-bounds" transform="matrix(1,0,0,1,0.25,0.25)"><svg viewBox="0 0 154.5 154.5" height="154.5" width="154.5"><g><svg></svg></g><g><svg viewBox="0 0 154.5 154.5" height="154.5" width="154.5"><mask id="SvgjsMask4575"><rect width="154.5" height="154.5" fill="white"></rect><g transform="matrix(1,0,0,1,29.509500000000003,48.29327214684757)" id="clone"><svg viewBox="0 0 95.481 57.913455706304866" height="57.913455706304866" width="95.481"><g><svg viewBox="0 0 95.481 57.913455706304866" height="57.913455706304866" width="95.481"><g><svg viewBox="0 0 95.481 57.913455706304866" height="57.913455706304866" width="95.481"><g id="SvgjsG4574"><svg viewBox="0 0 95.481 57.913455706304866" height="57.913455706304866" width="95.481" id="SvgjsSvg4573"><g><svg viewBox="0 0 95.481 57.913455706304866" height="57.913455706304866" width="95.481"><g transform="matrix(1,0,0,1,0,0)"><svg width="95.481" viewBox="-0.6499999999999999 -35.35 63.65 39" height="57.913455706304866" data-palette-color="#c770f0"><path d="M13.75 0.65L13.75 0.65Q8.6 0.65 5.53-2.38 2.45-5.4 2.45-11.3L2.45-11.3Q2.45-13.95 3.18-16.8 3.9-19.65 5.6-22.45L5.6-22.45Q4.65-21.6 3.8-21.6L3.8-21.6Q2.35-21.6 2.35-23.9L2.35-23.9Q2.35-25.55 3.05-26.55 3.75-27.55 4.4-28.15L4.4-28.15Q5.5-29.1 7.2-30.08 8.9-31.05 11.2-31.7 13.5-32.35 16.35-32.35L16.35-32.35Q23.05-32.35 26.43-28.58 29.8-24.8 29.8-18.1L29.8-18.1Q29.8-14.15 28.65-10.75 27.5-7.35 25.38-4.8 23.25-2.25 20.3-0.8 17.35 0.65 13.75 0.65ZM15.5-4.95L15.5-4.95Q18-4.95 20.43-6.1 22.85-7.25 24.43-9.78 26-12.3 26-16.35L26-16.35Q26-20.15 24.55-22.43 23.1-24.7 20.88-25.73 18.65-26.75 16.2-26.75L16.2-26.75Q14.35-26.75 12.88-26.28 11.4-25.8 10.25-25.25L10.25-25.25Q8.95-23.25 7.8-20.38 6.65-17.5 6.65-14.3L6.65-14.3Q6.65-11.1 7.9-9.03 9.15-6.95 11.18-5.95 13.2-4.95 15.5-4.95ZM42 0.65L42 0.65Q40.15 0.65 38.6 0.3 37.05-0.05 36.05-1L36.05-1Q35.3-1.7 35.05-2.58 34.8-3.45 34.8-4.5L34.8-4.5Q34.8-6.2 35.1-7.9L35.1-7.9Q35.55-10.85 35.9-14.25 36.25-17.65 36.25-20.55L36.25-20.55Q36.25-21.45 36.17-22.6 36.1-23.75 35.95-24.75L35.95-24.75Q35.6-24.6 35.27-24.48 34.95-24.35 34.7-24.35L34.7-24.35Q34.25-24.35 34.1-24.8 33.95-25.25 33.95-25.8L33.95-25.8Q33.95-27.25 34.62-28.28 35.3-29.3 36.85-30.1L36.85-30.1Q38.5-31 41.17-31.68 43.85-32.35 46.6-32.35L46.6-32.35Q52.85-32.35 56.42-28.68 60-25 60-18.25L60-18.25Q60-14.4 58.82-10.98 57.65-7.55 55.35-4.93 53.05-2.3 49.7-0.83 46.35 0.65 42 0.65ZM43.6-4.95L43.6-4.95Q45.85-4.95 48.1-5.65 50.35-6.35 52.17-7.75 54-9.15 55.1-11.33 56.2-13.5 56.2-16.55L56.2-16.55Q56.2-20 54.85-22.25 53.5-24.5 51.25-25.6 49-26.7 46.25-26.7L46.25-26.7Q44.75-26.7 43.27-26.45 41.8-26.2 40.95-25.95L40.95-25.95Q40.9-23.65 40.67-21.48 40.45-19.3 40.15-17.25L40.15-17.25Q39.85-15.1 39.67-13.05 39.5-11 39.5-9L39.5-9Q39.5-6.5 40.52-5.73 41.55-4.95 43.6-4.95Z" opacity="1" transform="matrix(1,0,0,1,0,0)" fill="black" class="wordmark-text-0" id="SvgjsPath4572" stroke-width="5" stroke="black" stroke-linejoin="round"></path></svg></g></svg></g></svg></g></svg></g></svg></g></svg></g></mask><g transform="matrix(1,0,0,1,29.509500000000003,48.29327214684757)"><svg viewBox="0 0 95.481 57.913455706304866" height="57.913455706304866" width="95.481"><g><svg viewBox="0 0 95.481 57.913455706304866" height="57.913455706304866" width="95.481"><g><svg viewBox="0 0 95.481 57.913455706304866" height="57.913455706304866" width="95.481"><g id="textblocktransform"><svg viewBox="0 0 95.481 57.913455706304866" height="57.913455706304866" width="95.481" id="textblock"><g><svg viewBox="0 0 95.481 57.913455706304866" height="57.913455706304866" width="95.481"><g transform="matrix(1,0,0,1,0,0)"><svg width="95.481" viewBox="-0.6499999999999999 -35.35 63.65 39" height="57.913455706304866" data-palette-color="#c770f0"><path d="M13.75 0.65L13.75 0.65Q8.6 0.65 5.53-2.38 2.45-5.4 2.45-11.3L2.45-11.3Q2.45-13.95 3.18-16.8 3.9-19.65 5.6-22.45L5.6-22.45Q4.65-21.6 3.8-21.6L3.8-21.6Q2.35-21.6 2.35-23.9L2.35-23.9Q2.35-25.55 3.05-26.55 3.75-27.55 4.4-28.15L4.4-28.15Q5.5-29.1 7.2-30.08 8.9-31.05 11.2-31.7 13.5-32.35 16.35-32.35L16.35-32.35Q23.05-32.35 26.43-28.58 29.8-24.8 29.8-18.1L29.8-18.1Q29.8-14.15 28.65-10.75 27.5-7.35 25.38-4.8 23.25-2.25 20.3-0.8 17.35 0.65 13.75 0.65ZM15.5-4.95L15.5-4.95Q18-4.95 20.43-6.1 22.85-7.25 24.43-9.78 26-12.3 26-16.35L26-16.35Q26-20.15 24.55-22.43 23.1-24.7 20.88-25.73 18.65-26.75 16.2-26.75L16.2-26.75Q14.35-26.75 12.88-26.28 11.4-25.8 10.25-25.25L10.25-25.25Q8.95-23.25 7.8-20.38 6.65-17.5 6.65-14.3L6.65-14.3Q6.65-11.1 7.9-9.03 9.15-6.95 11.18-5.95 13.2-4.95 15.5-4.95ZM42 0.65L42 0.65Q40.15 0.65 38.6 0.3 37.05-0.05 36.05-1L36.05-1Q35.3-1.7 35.05-2.58 34.8-3.45 34.8-4.5L34.8-4.5Q34.8-6.2 35.1-7.9L35.1-7.9Q35.55-10.85 35.9-14.25 36.25-17.65 36.25-20.55L36.25-20.55Q36.25-21.45 36.17-22.6 36.1-23.75 35.95-24.75L35.95-24.75Q35.6-24.6 35.27-24.48 34.95-24.35 34.7-24.35L34.7-24.35Q34.25-24.35 34.1-24.8 33.95-25.25 33.95-25.8L33.95-25.8Q33.95-27.25 34.62-28.28 35.3-29.3 36.85-30.1L36.85-30.1Q38.5-31 41.17-31.68 43.85-32.35 46.6-32.35L46.6-32.35Q52.85-32.35 56.42-28.68 60-25 60-18.25L60-18.25Q60-14.4 58.82-10.98 57.65-7.55 55.35-4.93 53.05-2.3 49.7-0.83 46.35 0.65 42 0.65ZM43.6-4.95L43.6-4.95Q45.85-4.95 48.1-5.65 50.35-6.35 52.17-7.75 54-9.15 55.1-11.33 56.2-13.5 56.2-16.55L56.2-16.55Q56.2-20 54.85-22.25 53.5-24.5 51.25-25.6 49-26.7 46.25-26.7L46.25-26.7Q44.75-26.7 43.27-26.45 41.8-26.2 40.95-25.95L40.95-25.95Q40.9-23.65 40.67-21.48 40.45-19.3 40.15-17.25L40.15-17.25Q39.85-15.1 39.67-13.05 39.5-11 39.5-9L39.5-9Q39.5-6.5 40.52-5.73 41.55-4.95 43.6-4.95Z" opacity="1" transform="matrix(1,0,0,1,0,0)" fill="#c770f0" class="wordmark-text-0" data-fill-palette-color="primary" id="text-0"></path></svg></g></svg></g></svg></g></svg></g></svg></g></svg></g><g><path d="M0 154.5v-154.5h154.5v154.5zM149.964 149.964v-145.429h-145.429v145.429z" fill="#c770f0" fill-rule="nonzero" stroke="none" stroke-width="1" stroke-linecap="butt" stroke-linejoin="miter" stroke-miterlimit="10" stroke-dasharray="" stroke-dashoffset="0" font-family="none" font-weight="none" font-size="none" text-anchor="none" style="mix-blend-mode: normal" data-fill-palette-color="tertiary"></path></g></svg></g><defs></defs></svg><rect width="154.5" height="154.5" fill="none" stroke="none" visibility="hidden"></rect></g></svg></g></svg>